<?xml version="1.0" encoding="UTF-8"?>
<!-- Generator: visioncortex VTracer 0.6.4 -->
<svg version="1.1" xmlns="http://www.w3.org/2000/svg" width="240" height="238">
<path d="M0 0 C2.32 -0 4.64 -0.01 6.96 -0.01 C11.8 -0.02 16.63 -0.01 21.47 0.01 C27.63 0.03 33.8 0.02 39.96 -0 C44.74 -0.02 49.52 -0.01 54.3 -0 C56.58 -0 58.85 -0 61.12 -0.01 C84.44 -0.09 103.5 3.53 120.88 20.53 C136.67 38.69 138.34 56.94 138.27 79.91 C138.28 82.28 138.28 84.66 138.28 87.03 C138.29 92 138.28 96.96 138.27 101.92 C138.25 108.25 138.26 114.59 138.28 120.92 C138.29 125.82 138.28 130.72 138.28 135.62 C138.27 137.96 138.28 140.29 138.28 142.63 C138.34 165.39 135.31 183.44 118.88 200.53 C101.12 217.57 81.13 219 57.88 218.93 C55.55 218.93 53.22 218.93 50.89 218.94 C46.04 218.94 41.18 218.94 36.32 218.92 C30.12 218.91 23.93 218.92 17.73 218.93 C12.93 218.94 8.13 218.94 3.33 218.93 C1.05 218.93 -1.23 218.93 -3.52 218.94 C-27.01 219 -45.75 215.78 -63.12 198.53 C-74.77 184.97 -80.25 170.06 -80.3 152.36 C-80.31 151.35 -80.32 150.34 -80.32 149.3 C-80.34 145.96 -80.35 142.62 -80.36 139.29 C-80.37 138.14 -80.37 136.99 -80.38 135.81 C-80.4 129.75 -80.41 123.68 -80.42 117.61 C-80.43 111.38 -80.47 105.15 -80.51 98.91 C-80.53 94.09 -80.54 89.27 -80.54 84.45 C-80.55 82.16 -80.56 79.86 -80.58 77.56 C-80.75 54.95 -77.69 35.45 -61.12 18.53 C-42.46 2.34 -23.8 -0.1 0 0 Z " fill="#0D2323" transform="translate(90.125,11.46875)"/>
<path d="M0 0 C5.35 2.51 7.67 8.3 9.67 13.67 C10.17 15.15 10.65 16.64 11.12 18.12 C11.38 18.92 11.63 19.71 11.9 20.52 C18 40.06 18.12 59.71 8.52 78.09 C0.37 92.27 -11.47 102.16 -27.06 107.38 C-27.76 107.62 -28.46 107.86 -29.18 108.12 C-41.51 111.62 -54.89 110.42 -66.06 104.38 C-67.39 103.71 -68.73 103.04 -70.06 102.38 C-70.06 101.72 -70.06 101.06 -70.06 100.38 C-70.87 100.07 -70.87 100.07 -71.69 99.75 C-75.06 97.8 -77.37 95.19 -80.06 92.38 C-83.15 93.03 -83.15 93.03 -84.16 95.31 C-86.46 101.26 -88.04 107.07 -89.06 113.38 C-91.81 114.56 -91.81 114.56 -95.06 115.38 C-97.23 114.2 -97.23 114.2 -99.06 112.38 C-100.94 105.12 -98.11 96.93 -95.06 90.38 C-93.35 87.84 -91.56 85.52 -89.55 83.21 C-87.86 81.34 -87.86 81.34 -87.06 78.38 C-87.39 77.04 -87.73 75.71 -88.06 74.38 C-88.93 60.97 -88.12 49.16 -79.05 38.47 C-68.51 27.33 -58.26 23.66 -43.69 20.38 C-22.73 15.72 -22.73 15.72 -5.94 2.94 C-3.06 0.38 -3.06 0.38 0 0 Z " fill="#0B2722" transform="translate(158.0625,60.625)"/>
<path d="M0 0 C5.35 2.51 7.67 8.3 9.67 13.67 C10.17 15.15 10.65 16.64 11.12 18.12 C11.38 18.92 11.63 19.71 11.9 20.52 C18 40.06 18.12 59.71 8.52 78.09 C0.37 92.27 -11.47 102.16 -27.06 107.38 C-27.76 107.62 -28.46 107.86 -29.18 108.12 C-41.51 111.62 -54.89 110.42 -66.06 104.38 C-67.39 103.71 -68.73 103.04 -70.06 102.38 C-70.06 101.72 -70.06 101.06 -70.06 100.38 C-70.87 100.07 -70.87 100.07 -71.69 99.75 C-75.06 97.8 -77.37 95.19 -80.06 92.38 C-83.15 93.03 -83.15 93.03 -84.16 95.31 C-86.46 101.26 -88.04 107.07 -89.06 113.38 C-91.81 114.56 -91.81 114.56 -95.06 115.38 C-97.23 114.2 -97.23 114.2 -99.06 112.38 C-100.94 105.12 -98.11 96.93 -95.06 90.38 C-93.35 87.84 -91.56 85.52 -89.55 83.21 C-87.86 81.34 -87.86 81.34 -87.06 78.38 C-87.39 77.04 -87.73 75.71 -88.06 74.38 C-88.93 60.97 -88.12 49.16 -79.05 38.47 C-68.51 27.33 -58.26 23.66 -43.69 20.38 C-22.73 15.72 -22.73 15.72 -5.94 2.94 C-3.06 0.38 -3.06 0.38 0 0 Z M-9.25 20.45 C-18.71 26.92 -29.83 28.5 -40.85 30.72 C-53.31 33.26 -64.55 36.23 -72.06 47.38 C-72.55 48.08 -73.03 48.79 -73.54 49.52 C-77.82 56.72 -78.03 64.2 -77.06 72.38 C-76.4 73.03 -75.74 73.69 -75.06 74.38 C-71.91 73.5 -68.77 72.59 -65.62 71.69 C-64.75 71.44 -63.87 71.2 -62.96 70.95 C-55.03 68.64 -48.1 65.21 -41.56 60.12 C-40.91 59.62 -40.26 59.12 -39.59 58.61 C-38.11 57.46 -38.11 57.46 -37.06 56.38 C-34.73 56.33 -32.4 56.33 -30.06 56.38 C-29.25 59.06 -29.25 59.06 -29.06 62.38 C-30.7 64.56 -31.93 65.76 -34.06 67.38 C-34.67 67.85 -35.28 68.32 -35.91 68.81 C-46.4 76.36 -58.69 80.18 -71.06 83.38 C-70.33 87.97 -67.9 89.84 -64.41 92.69 C-55.62 99 -45.57 99.8 -35.06 98.38 C-21.29 94.77 -9.46 86.18 -1.64 74.26 C7.13 58.2 6.13 41.69 1.94 24.38 C0.8 21.18 -0.48 18.38 -2.06 15.38 C-4.55 15.38 -7.41 18.91 -9.25 20.45 Z " fill="#28BC60" transform="translate(158.0625,60.625)"/>
</svg>
